<mxfile host="app.diagrams.net" agent="Mozilla/5.0 (Windows NT 10.0; Win64; x64) AppleWebKit/537.36 (KHTML, like Gecko) Chrome/128.0.0.0 Safari/537.36" version="24.7.14">
  <diagram name="ページ1" id="XJ5l2u9ecVaz2ni-R6ZY">
    <mxGraphModel dx="1963" dy="579" grid="1" gridSize="10" guides="1" tooltips="1" connect="1" arrows="1" fold="1" page="1" pageScale="1" pageWidth="827" pageHeight="1169" math="0" shadow="0">
      <root>
        <mxCell id="0" />
        <mxCell id="1" parent="0" />
        <mxCell id="otuVwqjTsFWOJOp-3VCN-6" value="creator" style="rounded=1;whiteSpace=wrap;html=1;" vertex="1" parent="1">
          <mxGeometry x="-580" y="70" width="120" height="60" as="geometry" />
        </mxCell>
        <mxCell id="otuVwqjTsFWOJOp-3VCN-7" value="user" style="rounded=1;whiteSpace=wrap;html=1;" vertex="1" parent="1">
          <mxGeometry x="-580" y="310" width="120" height="60" as="geometry" />
        </mxCell>
        <mxCell id="otuVwqjTsFWOJOp-3VCN-8" value="&lt;span style=&quot;background-color: initial;&quot;&gt;product&lt;/span&gt;" style="rounded=1;whiteSpace=wrap;html=1;" vertex="1" parent="1">
          <mxGeometry x="-580" y="190" width="120" height="60" as="geometry" />
        </mxCell>
        <mxCell id="otuVwqjTsFWOJOp-3VCN-9" value="creator_recrutor" style="rounded=1;whiteSpace=wrap;html=1;" vertex="1" parent="1">
          <mxGeometry x="-750" y="190" width="120" height="60" as="geometry" />
        </mxCell>
        <mxCell id="otuVwqjTsFWOJOp-3VCN-10" value="notification_collabo" style="rounded=1;whiteSpace=wrap;html=1;" vertex="1" parent="1">
          <mxGeometry x="-400" y="190" width="120" height="60" as="geometry" />
        </mxCell>
      </root>
    </mxGraphModel>
  </diagram>
</mxfile>
